<svg version="1.1" id="Layer_1" xmlns="http://www.w3.org/2000/svg" xmlns:xlink="http://www.w3.org/1999/xlink" x="0px" y="0px"
	 width="100%" viewBox="0 0 384 384" enable-background="new 0 0 384 384" xml:space="preserve">
<path fill="#000000" opacity="1.000000" stroke="none" 
	d="
M199.960403,374.275360 
	C192.560059,374.803070 186.053787,372.794342 178.971619,370.309326 
	C180.093903,373.325531 181.492996,375.086212 183.426514,376.393188 
	C184.678635,377.239563 185.294281,378.224304 184.898117,379.741272 
	C184.427185,381.544434 182.922409,381.306091 181.656006,381.292603 
	C173.800766,381.208893 166.100616,379.675293 158.496521,378.038879 
	C140.658920,374.200165 123.816010,367.575165 107.937630,358.552673 
	C107.072929,358.061340 106.227455,357.516724 105.450096,356.899780 
	C105.091751,356.615356 104.919632,356.096344 104.420517,355.293579 
	C108.151627,352.003601 112.795815,350.768250 117.292480,349.293457 
	C120.076454,348.380402 122.445663,347.494385 122.938065,343.898529 
	C123.334984,340.999939 126.060150,339.555847 128.621735,338.816467 
	C132.849396,337.596252 136.008972,335.547302 137.993820,331.378357 
	C138.998428,329.268280 141.248901,327.751373 143.143036,325.747314 
	C140.678802,322.650818 136.976669,320.580872 134.375961,317.314758 
	C127.130150,308.215149 124.643402,297.395721 122.790352,286.363068 
	C122.204590,282.875610 120.869644,281.074188 117.441170,279.584259 
	C109.808014,276.266937 106.189621,268.801147 102.575104,262.015137 
	C97.328903,252.165787 95.592606,241.319626 96.608528,230.104553 
	C96.823875,227.727280 97.134621,225.269699 98.504196,223.455658 
	C103.943222,216.251556 101.920998,208.051712 101.283920,200.341019 
	C100.834915,194.906693 99.667587,189.625336 100.594353,184.090958 
	C101.770119,177.069580 102.442406,169.988022 103.019867,162.868668 
	C103.778152,153.520096 110.226334,147.460068 118.082390,142.970566 
	C119.808998,141.983856 121.699921,141.327240 122.508827,139.208893 
	C129.045883,122.089539 142.652863,112.717430 158.978882,106.740021 
	C180.865799,98.726608 203.437637,97.869522 226.320129,101.316307 
	C232.225235,102.205795 238.029373,103.311676 243.153595,105.529671 
	C244.155487,107.546707 241.768478,108.087616 242.478287,109.975548 
	C251.155899,113.774239 260.164642,117.650826 268.062225,123.639397 
	C273.673096,127.893982 278.836029,132.598129 283.194641,138.089706 
	C285.813232,141.388947 287.936554,144.742950 288.179535,149.577225 
	C288.382233,153.609497 291.570129,157.424026 293.049072,161.476166 
	C295.104431,167.107681 294.733246,172.960480 295.012512,178.893951 
	C295.600220,191.381577 292.020477,203.218811 291.750092,215.443405 
	C291.733368,216.199142 291.976257,217.203156 292.483551,217.691498 
	C299.983551,224.911346 298.839081,234.134933 298.063477,243.039597 
	C296.971161,255.579758 291.257843,266.223572 283.107727,275.615753 
	C281.931641,276.971069 280.481201,278.681946 278.912079,278.994263 
	C273.641876,280.043304 273.037781,283.881775 272.270905,288.127655 
	C270.371063,298.646576 268.050934,309.078918 260.809845,317.517303 
	C258.340027,320.395508 255.625305,323.063538 252.710312,326.159119 
	C258.532318,329.719421 261.486786,337.390350 269.809509,338.372559 
	C272.726044,338.716766 274.648499,341.622437 274.961426,344.546204 
	C275.338562,348.069672 277.416412,349.151367 280.294739,350.199188 
	C283.637115,351.415955 287.355011,352.166901 290.273956,355.804108 
	C266.513397,370.508911 241.099442,378.836304 213.613327,381.296600 
	C212.814621,377.529541 216.301178,375.821350 216.115433,372.459290 
	C210.765503,372.570496 205.727905,374.832947 199.960403,374.275360 
M159.223938,329.217194 
	C161.350937,330.525635 163.459061,331.865936 165.607864,333.137512 
	C185.697510,345.026001 206.154831,345.981598 226.762848,334.714661 
	C233.611282,330.970398 240.124176,326.581940 246.626709,322.242615 
	C256.322327,315.772369 262.360870,306.923645 264.855377,295.311249 
	C266.813019,286.197998 268.136536,277.010529 269.681244,267.845398 
	C270.839478,260.973022 272.391785,254.172729 272.814270,247.170624 
	C273.056946,243.148804 271.172729,239.601379 271.356995,235.452911 
	C271.791260,225.677155 273.683990,215.518051 270.984100,206.127533 
	C268.143768,196.248474 266.779816,186.323044 265.871948,176.252411 
	C265.559753,172.789368 264.097809,170.868988 261.293182,169.220108 
	C253.435043,164.600128 244.712051,163.439346 235.912766,162.640747 
	C224.989456,161.649429 214.478134,164.682007 203.772507,165.877548 
	C209.929306,167.066483 215.951736,164.169724 222.405960,165.137665 
	C221.458252,167.787338 219.540939,167.752487 218.075943,168.089050 
	C199.726501,172.304550 182.037170,170.019730 165.062057,162.161575 
	C162.211395,160.841949 159.934067,160.736725 157.087524,161.952484 
	C150.891449,164.598831 144.334351,165.621109 137.581512,165.295853 
	C130.882858,164.973190 129.570023,165.982239 128.543640,172.559296 
	C128.237915,174.518341 128.418533,176.548492 128.282211,178.539612 
	C127.715240,186.820786 127.761848,195.225525 124.130783,202.967041 
	C122.451813,206.546600 122.212784,210.275391 122.081779,214.141632 
	C121.266975,238.188675 123.647781,261.941650 128.415161,285.482910 
	C130.495560,295.755859 132.101807,306.295044 139.578018,314.423889 
	C145.022293,320.343445 151.743530,324.713196 159.223938,329.217194 
M166.971542,357.527588 
	C178.509537,371.521149 193.863815,372.386139 210.134933,370.054016 
	C214.180466,369.474213 217.723175,367.681549 220.962418,365.267761 
	C229.569473,358.854218 230.623703,351.934418 224.189392,342.685699 
	C206.337769,350.297028 188.284775,349.922455 170.496872,342.463593 
	C168.453476,345.406891 169.048996,349.085663 166.611664,350.977600 
	C163.737289,353.208862 164.433090,354.965912 166.971542,357.527588 
M104.171837,247.708252 
	C104.288300,255.920074 109.783264,261.646149 113.703705,268.070160 
	C114.740776,269.769531 116.473480,270.338379 118.377846,267.639557 
	C113.291397,265.057129 111.637543,260.879669 111.550850,255.444611 
	C111.506424,252.659363 109.802048,249.770920 108.384293,247.183075 
	C107.447685,245.473465 105.695084,243.571579 104.171837,247.708252 
M282.927551,265.430664 
	C284.581360,262.737274 287.100861,260.449951 286.757751,256.646729 
	C283.118561,260.289307 281.698364,265.878143 276.539001,268.099609 
	C275.869171,268.388000 275.866669,269.907043 276.906647,270.983093 
	C279.777374,270.555450 280.994873,268.102722 282.927551,265.430664 
M289.599640,231.208969 
	C291.516327,234.588577 289.303680,238.621674 291.578491,243.457855 
	C292.653259,236.769226 293.256653,231.593719 290.641998,226.400238 
	C289.117615,227.722839 286.994904,228.590546 289.599640,231.208969 
z"/>
<path fill="#000000" opacity="1.000000" stroke="none" 
	d="
M162.441177,217.157745 
	C171.411713,218.313049 178.532211,221.476593 182.480820,229.823166 
	C185.620880,236.460648 183.132538,241.625427 175.769073,243.344910 
	C172.923462,244.009384 170.072281,243.748611 167.341660,243.165329 
	C161.535660,241.925186 155.769943,242.125717 149.967026,242.896423 
	C146.587158,243.345306 143.205185,243.127441 140.243256,241.481613 
	C133.388611,237.672699 132.529434,232.572388 137.474243,226.397430 
	C143.816284,218.477585 152.341492,216.252365 162.441177,217.157745 
M144.567673,226.079727 
	C143.673752,226.807785 142.620377,227.408554 141.917389,228.289062 
	C140.176010,230.470200 138.093079,232.717453 139.739883,235.815216 
	C141.285156,238.721970 143.893463,239.937943 147.163376,239.719376 
	C148.442276,239.633896 149.819809,240.025726 151.488022,238.473450 
	C148.805145,233.962204 148.917435,228.882126 151.116852,223.743164 
	C148.392868,223.433441 146.847076,224.779465 144.567673,226.079727 
M178.802872,232.635422 
	C176.972717,228.875351 174.565872,225.787659 169.969818,224.764923 
	C169.908707,227.602448 171.563721,229.770355 171.097885,232.329193 
	C170.670425,234.677063 168.734528,236.628174 169.088394,239.179153 
	C176.449570,240.401642 179.437866,238.585724 178.802872,232.635422 
z"/>
<path fill="#000000" opacity="1.000000" stroke="none" 
	d="
M249.169342,219.521027 
	C252.884537,221.592209 255.785324,224.012894 258.035492,227.195847 
	C262.443085,233.430511 259.925781,240.279541 252.431564,242.340118 
	C250.012482,243.005264 247.589966,243.255081 245.051880,242.890839 
	C239.114334,242.038651 233.173111,241.864365 227.241653,243.159592 
	C221.761841,244.356216 216.834778,243.761810 212.613190,239.351013 
	C210.572281,237.218628 210.160446,235.549973 211.080841,232.797501 
	C216.033493,217.986588 232.483597,215.043961 245.074905,218.019440 
	C246.357742,218.322601 247.575882,218.899506 249.169342,219.521027 
M244.119827,236.764572 
	C243.909393,237.530045 243.421326,238.922073 243.528946,238.969757 
	C246.540710,240.304245 249.610825,240.180084 252.450317,238.578583 
	C254.941818,237.173370 256.426025,235.048737 255.438614,231.985672 
	C254.158966,228.015991 248.829712,224.311707 243.868088,224.049545 
	C245.045227,228.055344 246.247437,232.040222 244.119827,236.764572 
M221.687103,239.743774 
	C223.122971,239.687775 224.667389,240.205826 226.296463,238.581726 
	C223.454117,234.425308 222.974014,229.717880 225.461807,224.530823 
	C221.560135,225.253128 219.545654,227.121033 217.890381,229.463013 
	C213.895401,235.115250 214.565811,237.332626 221.687103,239.743774 
M232.515976,224.458527 
	C230.617523,224.814713 229.918808,225.941315 230.845230,227.635864 
	C231.495865,228.825943 232.789368,229.034073 233.792130,228.103378 
	C235.262680,226.738464 234.775070,225.494049 232.515976,224.458527 
z"/>
<path fill="#000000" opacity="1.000000" stroke="none" 
	d="
M193.250153,315.277527 
	C180.903290,314.039764 170.323105,310.511047 164.156631,299.139526 
	C164.000656,298.851898 163.738480,298.623749 163.543503,298.355042 
	C162.520935,296.945892 159.029877,296.690887 160.813446,294.043060 
	C162.335693,291.783173 164.913681,292.753143 167.218689,293.380157 
	C186.328278,298.578094 205.569214,298.642456 224.868423,294.578796 
	C226.781631,294.175934 228.535324,293.063110 230.409760,292.414825 
	C232.177307,291.803528 233.801285,292.340729 234.763046,293.889771 
	C235.680542,295.367554 234.506927,296.314606 233.410583,297.162354 
	C232.890793,297.564270 232.286606,297.971375 231.982254,298.520966 
	C223.858658,313.189880 210.115433,315.513672 195.212997,315.311859 
	C194.714523,315.305115 194.216064,315.297760 193.250153,315.277527 
M217.557419,307.105225 
	C221.517883,305.652832 223.293396,301.989014 227.156799,298.219147 
	C207.165451,302.976715 188.538803,302.552307 168.913681,298.387421 
	C179.638367,311.467743 200.741440,315.008514 217.557419,307.105225 
z"/>
<path fill="#000000" opacity="1.000000" stroke="none" 
	d="
M183.850922,198.407578 
	C184.843750,200.392731 185.914749,202.165680 184.529205,203.866714 
	C183.024780,205.713715 181.158844,204.474274 179.458679,203.961197 
	C166.513351,200.054565 153.582153,197.131790 140.729004,204.289536 
	C138.989151,205.258438 137.228470,206.191818 135.449402,207.085876 
	C135.235657,207.193298 134.845169,206.948944 134.538193,206.861542 
	C140.229813,190.827271 167.831421,186.442612 183.850922,198.407578 
z"/>
<path fill="#000000" opacity="1.000000" stroke="none" 
	d="
M244.438965,193.135559 
	C251.607010,196.214264 257.652527,200.024002 261.421692,206.619675 
	C260.030304,208.069931 259.126221,207.218552 258.411865,206.715012 
	C246.599213,198.388351 233.795670,198.791840 220.626022,202.352722 
	C219.021896,202.786453 217.468613,203.426056 215.850906,203.787247 
	C213.892273,204.224533 211.452896,206.031311 210.140610,203.218155 
	C208.898529,200.555450 210.508041,198.288254 212.714432,196.843796 
	C217.258606,193.868805 222.475098,192.450104 227.760605,191.915222 
	C233.186386,191.366135 238.739334,191.035675 244.438965,193.135559 
z"/>
<path fill="#000000" opacity="1.000000" stroke="none" 
	d="
M204.894669,282.763153 
	C199.945374,286.609436 195.398438,287.045013 190.539825,283.198486 
	C189.208694,282.144653 187.164291,281.896179 185.396881,281.505890 
	C178.714020,280.030182 177.143250,275.220673 181.563126,269.517395 
	C182.719894,269.826385 182.486740,270.781952 182.371567,271.531250 
	C181.716599,275.792816 183.319580,276.389404 187.620758,277.847412 
	C194.673737,280.238312 200.369858,280.015747 207.358658,278.009949 
	C211.935028,276.696503 213.277390,275.657440 212.493729,271.445435 
	C212.371429,270.788116 212.257767,270.156097 213.374054,269.482788 
	C215.180618,271.662018 216.404999,273.977997 215.460419,276.959656 
	C214.567154,279.779388 212.636139,281.296692 209.595795,281.533051 
	C208.127533,281.647125 206.695618,282.228943 204.894669,282.763153 
z"/>
<path fill="#000000" opacity="1.000000" stroke="none" 
	d="
M206.748856,254.073120 
	C206.799011,250.974045 205.172592,248.092834 208.244751,244.938904 
	C210.026871,250.982681 210.441223,256.593689 210.889404,262.891602 
	C206.575409,260.845062 207.955139,257.091949 206.748856,254.073120 
z"/>
</svg>