<svg version="1.1" id="Layer_1" xmlns="http://www.w3.org/2000/svg" xmlns:xlink="http://www.w3.org/1999/xlink" x="0px" y="0px"
	 width="100%" viewBox="0 0 384 384" enable-background="new 0 0 384 384" xml:space="preserve">
<path fill="#000000" opacity="1.000000" stroke="none" 
	d="
M252.187927,373.348511 
	C197.895950,390.266754 147.331467,382.469696 99.290817,353.634003 
	C100.602730,350.259979 103.075134,350.317841 104.990906,349.811737 
	C117.196091,346.587280 129.428787,343.462830 141.687531,340.448151 
	C144.817795,339.678375 147.109009,338.241272 148.459137,335.238922 
	C149.630722,332.633636 151.416824,330.457916 154.344559,329.150482 
	C151.928757,325.119659 148.567703,322.624359 145.679367,319.744965 
	C137.982391,312.071838 129.666870,304.496796 126.305061,294.040283 
	C123.231544,284.480499 118.981712,276.383606 112.058762,269.014862 
	C102.946350,259.315674 100.629791,246.720078 100.738289,233.749664 
	C100.787270,227.893494 102.401291,222.459381 107.681236,219.031372 
	C110.285004,217.340881 109.381561,215.494507 108.568527,213.426773 
	C103.825386,201.363937 103.192818,188.418747 102.093666,175.845688 
	C101.346725,167.301544 105.317688,158.500366 101.817291,149.590118 
	C100.702950,146.753571 102.522919,143.418076 103.528412,140.426651 
	C103.780724,139.675995 104.457954,138.369812 104.717728,138.422119 
	C111.259315,139.739532 109.315498,134.359924 110.081757,131.459930 
	C111.946541,124.402451 115.067139,118.379517 122.005547,115.122475 
	C123.673454,114.339523 124.445999,113.105728 125.044113,111.446465 
	C127.787117,103.837021 133.503723,99.292412 140.849167,96.538795 
	C141.920288,96.137260 143.514999,95.396629 144.147919,95.840004 
	C148.696777,99.026588 151.755280,95.327835 155.297180,93.751633 
	C158.640137,92.263962 162.056946,90.940926 165.387527,89.427193 
	C168.587631,87.972748 172.171417,86.492195 173.359558,83.010880 
	C175.166809,77.715530 178.147568,79.493591 180.340515,81.827347 
	C183.327469,85.006081 185.900070,84.756294 189.599121,83.253922 
	C201.635254,78.365463 213.755585,77.620262 225.802246,83.626884 
	C227.980637,84.713051 230.539490,85.065315 232.947754,85.653870 
	C235.906693,86.376984 238.993942,87.302849 240.961655,89.500496 
	C246.448471,95.628548 253.816193,98.662720 260.711151,102.564026 
	C266.793732,106.005676 271.764557,110.611923 273.329865,117.892036 
	C274.142395,121.670952 276.822205,120.875458 279.182861,120.046318 
	C281.454315,119.248520 283.560059,117.978828 285.856476,116.859001 
	C286.999054,119.586365 286.967896,122.288597 285.876923,124.021072 
	C282.882019,128.776932 285.043152,131.624969 288.229889,135.082291 
	C293.193634,140.467468 294.088135,147.813126 294.984772,154.588852 
	C295.619934,159.388687 296.453674,162.878128 301.332458,164.154556 
	C301.003876,167.803192 298.740784,169.633652 296.357727,171.078583 
	C294.041718,172.482864 293.356445,174.247803 293.308563,176.825699 
	C293.063782,189.999405 290.781311,202.885376 287.410858,215.589890 
	C287.004547,217.121384 286.674622,218.306656 288.150665,219.567780 
	C293.644287,224.261475 294.478180,230.733826 294.174408,237.332123 
	C293.549622,250.903168 289.508179,263.483002 279.578125,272.968018 
	C274.611847,277.711700 272.096771,282.647217 270.539948,289.137970 
	C268.198700,298.899078 261.882629,306.694031 254.998169,313.796234 
	C250.164246,318.783081 244.870422,323.324158 239.020264,328.773865 
	C244.404175,330.868866 246.148056,334.231232 247.760681,337.657043 
	C248.721207,339.697601 250.380814,340.356537 252.431885,340.910156 
	C264.622070,344.200378 276.830231,347.395386 289.253571,349.706635 
	C291.188843,350.066650 293.185699,350.364075 295.315979,352.686188 
	C281.926544,361.748871 267.721191,368.432129 252.187927,373.348511 
M151.260315,317.259033 
	C158.908096,324.434204 166.226242,331.977203 174.669159,338.265717 
	C187.296738,347.671051 207.989548,347.552826 220.485947,338.035065 
	C231.530716,329.622955 241.095352,319.624084 250.779602,309.760620 
	C259.376038,301.005035 265.000519,290.939087 267.013153,278.458344 
	C270.941284,254.099197 269.682678,229.647644 269.489349,205.216827 
	C269.432587,198.042557 267.720490,190.867493 266.965332,183.685013 
	C266.110229,175.551483 262.422485,167.444321 256.277222,161.039230 
	C252.609924,157.216888 248.717255,155.435730 243.374207,156.711212 
	C240.666061,157.357712 237.754120,157.289810 234.933380,157.300629 
	C224.328552,157.341293 213.806122,157.747971 203.477539,160.678391 
	C198.860199,161.988419 193.939529,162.811752 189.138428,162.027557 
	C178.045288,160.215637 166.990417,158.147125 155.963409,155.963577 
	C151.580170,155.095596 142.819092,158.681885 141.172348,162.745270 
	C139.626450,166.559814 137.393890,169.798203 134.233231,172.352386 
	C131.565582,174.508194 130.864975,177.100220 131.682037,180.339005 
	C132.757248,184.601044 133.221146,189.186005 131.874344,193.195160 
	C124.908325,213.931488 124.662437,235.313843 125.435387,256.745605 
	C125.805756,267.014984 127.032204,277.312500 129.945282,287.257507 
	C133.510239,299.427948 142.506226,307.841614 151.260315,317.259033 
M220.580933,345.164764 
	C207.344955,353.023193 186.089569,352.708466 173.203751,344.280609 
	C170.223724,342.331573 167.632645,341.740692 164.428818,344.571625 
	C176.391953,355.766632 189.914459,364.898376 200.916977,377.954956 
	C209.444534,364.986664 219.380112,354.225006 230.693481,344.574951 
	C226.817413,341.090881 223.985718,342.699738 220.580933,345.164764 
M282.258698,243.530106 
	C282.230652,245.529144 282.162598,247.515228 280.575073,248.984802 
	C279.403717,249.127045 279.254913,246.611984 277.302704,248.386963 
	C277.017761,250.703766 275.382416,254.863022 276.573730,255.964233 
	C280.764709,259.838165 277.890503,261.841766 275.539032,264.378815 
	C274.823669,265.150635 274.385986,266.059418 275.606354,266.845367 
	C285.189819,261.039276 291.799438,238.354645 286.016296,229.486450 
	C286.418427,233.897430 286.786469,237.846069 284.492584,241.173203 
	C282.822845,241.511597 283.649567,239.269730 282.258057,239.154602 
	C282.258057,240.474564 282.258057,241.633194 282.258698,243.530106 
M110.493820,241.242233 
	C108.898483,241.186111 107.604858,242.088547 107.771095,243.509171 
	C108.493080,249.679550 109.190567,255.931274 114.558067,261.528900 
	C114.447998,254.523819 121.385605,249.672256 117.527519,242.875732 
	C114.898445,242.862274 116.002388,246.167740 113.949287,246.518448 
	C112.285034,245.141907 113.412178,242.363159 110.493820,241.242233 
z"/>
<path fill="#000000" opacity="1.000000" stroke="none" 
	d="
M164.757874,287.916199 
	C173.222504,291.584747 181.894974,292.238434 190.483200,292.581085 
	C203.600372,293.104462 216.705002,292.764191 229.298233,288.112183 
	C231.658768,287.240143 233.800644,288.191925 235.209305,291.074921 
	C230.362442,292.868317 228.835846,297.534180 225.997910,301.049408 
	C210.434738,320.326782 183.661453,320.035095 168.512054,300.386749 
	C165.845901,296.928772 164.219772,292.583862 159.907623,290.766327 
	C160.690308,288.141998 162.465164,287.889191 164.757874,287.916199 
M182.707520,296.201019 
	C178.441223,295.721252 174.279160,294.212097 169.487961,294.442841 
	C177.393890,303.410645 218.909271,303.163300 225.529266,293.873596 
	C211.283295,296.665771 197.506912,298.009277 182.707520,296.201019 
z"/>
<path fill="#000000" opacity="1.000000" stroke="none" 
	d="
M242.290268,238.511581 
	C231.085983,244.248825 225.436935,243.882111 209.417633,236.578201 
	C207.914902,239.905655 208.506897,243.439346 208.333878,246.888840 
	C208.173294,250.091202 208.772934,253.362747 207.299652,256.462524 
	C204.718536,244.820541 205.350754,233.363800 208.432968,221.480255 
	C210.692398,222.850754 210.156982,224.120361 210.242828,225.192245 
	C210.321732,226.177292 210.259598,227.173645 210.259598,228.353195 
	C212.998123,225.766785 212.998123,225.766785 211.928497,221.685623 
	C222.938232,219.492142 233.887085,217.540329 244.607834,222.234055 
	C251.797516,225.381836 252.219849,229.844681 246.510956,235.216156 
	C245.305862,236.350052 243.903702,237.274506 242.290268,238.511581 
M236.676529,238.441757 
	C240.772415,236.211136 246.540222,233.754196 245.865417,229.097595 
	C245.124405,223.984177 238.645966,224.501556 234.179550,223.690430 
	C233.915085,223.642395 233.589722,223.929718 232.964569,224.205978 
	C234.263718,226.884399 235.488724,229.735703 232.456329,232.118393 
	C230.891617,233.347870 229.064026,233.740479 227.324829,232.791824 
	C225.109360,231.583420 224.054428,229.644592 224.664963,227.170792 
	C226.106140,225.767899 229.625366,227.914795 229.336731,223.779770 
	C225.640656,223.722748 222.046967,224.277145 218.769196,225.523315 
	C215.559738,226.743530 214.528030,230.196228 213.943466,233.234604 
	C213.349060,236.324081 216.579758,236.663864 218.481186,237.614258 
	C224.096786,240.421066 229.983337,240.383240 236.676529,238.441757 
z"/>
<path fill="#000000" opacity="1.000000" stroke="none" 
	d="
M158.814453,241.536682 
	C152.978516,239.767593 148.743790,236.483353 145.465881,231.863556 
	C143.603485,229.238724 143.904495,227.039825 146.310501,224.896301 
	C148.209213,223.204788 150.271362,221.707550 152.673279,221.105713 
	C162.847229,218.556488 172.933655,219.100662 183.593521,222.186752 
	C180.884689,225.710876 183.075928,228.347824 184.269821,231.010300 
	C185.794098,234.409531 184.928574,236.467972 181.754791,238.361176 
	C174.631027,242.610626 167.122467,243.319092 158.814453,241.536682 
M165.279373,234.579041 
	C163.235397,233.647491 161.091705,233.127304 160.358109,230.340179 
	C159.142609,225.722214 164.606171,227.625549 165.540314,224.261765 
	C160.992813,222.885010 156.769180,224.115967 152.780884,225.432175 
	C147.999664,227.010101 147.583176,229.341843 150.793900,233.171951 
	C156.506638,239.986816 167.671234,241.960236 176.475220,237.711380 
	C181.728241,235.176239 182.012207,234.102966 179.362549,229.016388 
	C177.770004,225.959198 175.346436,223.978882 172.183899,225.441895 
	C169.568420,226.651825 169.410553,229.676239 170.814163,232.245575 
	C171.940598,234.307465 170.490570,235.205521 169.202789,235.633759 
	C167.916046,236.061615 165.891144,237.995026 165.279373,234.579041 
z"/>
<path fill="#000000" opacity="1.000000" stroke="none" 
	d="
M164.291290,201.469269 
	C168.357086,202.670212 172.036865,203.714340 175.684219,204.861572 
	C177.595612,205.462769 179.479843,206.202286 180.413834,208.225693 
	C181.208374,209.946960 181.771301,211.822388 180.639008,213.461548 
	C179.543747,215.047073 177.646942,214.729553 176.031433,214.335800 
	C171.839813,213.314148 167.709091,212.029816 163.498962,211.099823 
	C155.530396,209.339645 147.949417,210.001068 141.235901,215.229370 
	C140.730972,215.622604 140.065125,215.840027 139.441620,216.035919 
	C139.166687,216.122299 138.810547,215.950226 138.491959,215.891510 
	C137.656540,210.111526 143.529404,202.585312 150.130814,200.683456 
	C154.840927,199.326477 159.350662,200.221603 164.291290,201.469269 
z"/>
<path fill="#000000" opacity="1.000000" stroke="none" 
	d="
M228.436996,211.399323 
	C225.170273,212.355316 222.353912,213.407440 219.450516,214.088516 
	C217.598938,214.522858 215.147141,215.281189 214.147675,212.882202 
	C213.104095,210.377319 213.855789,207.944565 216.233246,206.313919 
	C218.754425,204.584702 221.747162,204.012802 224.605835,203.200317 
	C228.753082,202.021576 232.944199,200.941788 237.175705,200.126495 
	C245.986786,198.428802 256.214447,205.407928 257.162903,217.349823 
	C248.395599,210.313538 238.973251,208.788101 228.436996,211.399323 
z"/>
<path fill="#000000" opacity="1.000000" stroke="none" 
	d="
M182.202271,276.086914 
	C179.935562,273.115509 178.994415,270.440002 182.675461,266.315247 
	C181.801208,272.610291 183.105118,275.621490 188.825211,273.995392 
	C189.576019,273.781982 190.964722,274.378662 191.493454,275.046844 
	C195.384964,279.964569 199.094360,279.049042 202.973099,275.049194 
	C203.600388,274.402313 204.910065,273.791382 205.673019,274.001892 
	C211.209122,275.529541 212.137405,272.105194 212.160645,267.364716 
	C214.882523,269.089203 215.025681,271.076416 214.313049,273.233887 
	C213.602951,275.383667 212.357910,277.312134 209.844818,277.301178 
	C206.261078,277.285553 203.621094,278.671692 201.197647,281.284393 
	C199.604630,283.001801 196.783005,284.224792 194.943695,282.206940 
	C191.497009,278.425720 187.213303,277.091858 182.202271,276.086914 
z"/>
</svg>