<svg version="1.1" id="Layer_1" xmlns="http://www.w3.org/2000/svg" xmlns:xlink="http://www.w3.org/1999/xlink" x="0px" y="0px"
	 width="100%" viewBox="0 0 384 384" enable-background="new 0 0 384 384" xml:space="preserve">
<path fill="#000000" opacity="1.000000" stroke="none" 
	d="
M274.991943,281.031799 
	C272.157074,285.350098 272.284027,290.135040 271.419006,294.628326 
	C268.502167,309.779144 261.424896,322.788788 251.415253,334.282379 
	C248.728760,337.367126 243.151947,337.651306 242.881699,343.819489 
	C256.809875,348.934296 272.711334,349.208557 287.404419,357.162262 
	C280.432312,362.246033 273.886841,365.826904 266.654602,367.087006 
	C264.201538,367.514435 261.100922,364.089661 258.260712,362.488190 
	C256.820038,361.675812 255.267090,360.316437 253.822281,360.386566 
	C247.544479,360.691345 243.054962,357.877106 239.441971,352.055695 
	C234.539352,365.238434 223.703323,368.218231 212.494751,370.901642 
	C197.330139,374.532135 182.785858,373.471039 168.814117,366.254333 
	C164.678360,364.118103 161.473785,361.052399 159.244797,357.038483 
	C155.732162,350.713074 146.037415,350.416168 142.007538,356.594269 
	C136.115295,365.627563 126.837730,368.153351 117.049126,363.369141 
	C114.513206,362.129700 111.982002,360.875702 109.504211,359.526337 
	C109.003876,359.253845 108.754539,358.520477 108.234802,357.778870 
	C111.466591,353.707489 116.103905,352.827667 120.533485,351.733704 
	C129.412308,349.540924 138.348480,347.581207 147.239166,345.434875 
	C148.815826,345.054321 150.286819,344.236023 152.047623,343.522125 
	C150.979797,340.464020 150.273285,337.744965 146.462326,337.221313 
	C145.275726,337.058228 144.217148,335.376007 143.255020,334.256012 
	C131.066254,320.067566 124.241043,303.506622 121.876396,285.072632 
	C121.458931,281.818237 120.341347,280.030731 116.953148,280.379944 
	C113.587776,280.726868 111.306610,278.987549 109.109688,276.795563 
	C99.395660,267.103241 95.005714,254.760300 91.814873,241.873169 
	C90.949265,238.377151 89.574608,235.459091 87.128357,232.741211 
	C82.197212,227.262466 79.182442,220.892029 79.637543,213.224045 
	C79.860565,209.466248 78.691078,205.931046 76.851364,202.733765 
	C72.522964,195.211349 72.010033,187.301620 74.085556,179.087112 
	C74.544594,177.270309 74.834579,175.477142 74.482971,173.658707 
	C71.964272,160.632553 75.968132,149.164688 83.538826,138.931885 
	C105.146004,109.726974 134.098846,91.206833 168.680328,80.817940 
	C181.955170,76.829948 195.572739,74.820061 209.136444,72.443771 
	C214.602036,71.486229 219.521072,73.177330 222.427597,78.260742 
	C223.983994,80.982857 226.503510,81.463982 228.988083,82.287354 
	C255.337402,91.019341 278.873901,104.624870 298.568146,124.191154 
	C312.143646,137.678421 321.213135,153.971115 318.921570,173.781174 
	C317.562164,185.533035 317.032806,197.357605 313.684021,209.129547 
	C309.415955,224.133041 303.302094,238.450317 299.165985,253.448746 
	C297.666443,258.886444 294.402405,263.685974 291.496979,268.561523 
	C287.735535,274.873535 282.714508,279.381348 274.991943,281.031799 
M138.942978,211.022858 
	C138.457520,211.685669 137.920609,212.335007 138.447388,213.442215 
	C140.197113,213.860611 141.461014,212.933060 142.685867,211.728287 
	C151.844101,202.720245 170.464096,200.262161 180.638794,208.027664 
	C185.230423,211.532089 189.476532,211.608780 194.323318,211.651184 
	C198.650024,211.689041 202.977432,211.663132 207.304428,211.642700 
	C208.790741,211.635681 210.380371,211.810486 211.392456,210.354843 
	C214.469238,205.929642 219.380829,204.910339 224.074097,204.302643 
	C232.996414,203.147354 242.446411,201.852890 249.564423,209.027344 
	C253.673096,213.168579 258.526031,214.034897 264.301331,215.875641 
	C263.304199,214.236511 262.886719,213.334732 262.280487,212.585693 
	C250.663956,198.231842 239.038010,183.885574 227.376724,169.568100 
	C225.728867,167.544891 223.461624,166.719498 220.862076,166.305038 
	C211.608627,164.829742 202.307785,165.294830 193.007812,165.090897 
	C187.303467,164.965820 183.656189,167.175690 180.462204,171.486572 
	C174.400864,179.667480 167.307785,186.879150 159.590927,193.555450 
	C152.926910,199.320877 145.243790,203.864029 138.942978,211.022858 
M138.980453,289.764069 
	C143.415482,296.201660 144.400177,296.185028 148.826340,289.386810 
	C151.662445,285.030792 155.497253,282.186859 160.420074,280.400574 
	C164.710800,278.843567 168.921783,279.197662 173.224258,279.641174 
	C176.405655,279.969147 178.727066,279.517639 179.034409,275.474609 
	C179.193375,273.383423 180.143570,271.089508 182.782181,270.596527 
	C183.556824,271.744019 183.140488,272.503845 182.877090,273.282867 
	C182.344788,274.857086 181.517197,276.606293 183.223572,277.842712 
	C184.891296,279.051117 185.937286,277.319183 187.071304,276.497620 
	C189.286865,274.892517 191.088257,275.780334 192.943405,277.195831 
	C195.041107,278.796356 197.670410,279.945099 199.882416,278.300354 
	C203.768051,275.411133 207.294678,275.116852 210.633575,278.316254 
	C214.122375,276.786560 211.078598,273.769409 212.822784,271.802704 
	C216.328308,273.480194 215.519073,276.985626 215.914978,279.771667 
	C239.043671,278.216827 240.633820,281.969055 248.829971,293.917786 
	C256.468231,292.841095 260.005157,286.344452 263.821625,281.152435 
	C267.908234,275.592804 269.646851,268.544708 269.154144,261.068207 
	C260.263824,271.795990 248.732391,272.679657 236.544861,270.701538 
	C224.023468,268.669250 215.890839,260.245850 208.810745,250.000854 
	C207.407913,255.087219 209.984390,259.362885 209.280441,264.352448 
	C206.683304,262.499939 205.921631,260.272797 205.728424,257.758972 
	C205.046036,248.880585 204.966461,239.975922 203.327698,231.143326 
	C202.671875,227.608597 202.123810,224.612534 198.246979,224.540680 
	C194.331207,224.468094 193.320053,227.348862 193.074814,231.020889 
	C191.920700,248.301804 178.930573,265.278931 162.977310,269.600281 
	C149.418365,273.273071 136.441010,273.077728 127.088509,260.075562 
	C126.696587,259.530670 126.142899,259.154358 125.064987,259.871094 
	C125.054718,268.211975 128.030334,275.844940 131.974197,283.243134 
	C133.484253,286.075806 135.162384,288.551178 138.980453,289.764069 
M124.840691,185.401169 
	C139.763809,176.620880 153.271606,166.439133 161.672714,150.636520 
	C165.074112,144.238403 162.959061,139.251633 155.649384,138.325882 
	C154.412628,138.169250 153.008926,139.050232 151.810364,137.703445 
	C153.003662,134.564499 152.988144,131.349915 150.191605,129.127731 
	C147.552597,127.030716 144.560165,128.085175 141.682175,129.217514 
	C136.744843,131.160110 131.827057,133.211487 126.759712,134.752243 
	C116.437744,137.890671 109.222397,144.629852 103.989105,153.729660 
	C102.431107,156.438782 100.827682,159.434250 103.505508,162.474152 
	C106.202126,165.535370 109.369804,164.794296 112.665901,163.626556 
	C114.670242,162.916428 116.358620,160.947693 119.109642,161.576233 
	C118.348953,163.742813 116.681244,164.315048 115.296135,165.105377 
	C110.689598,167.733688 106.024086,170.258377 101.399467,172.855392 
	C99.761482,173.775223 98.506241,174.972427 98.116402,176.989517 
	C96.614708,184.759613 103.846375,192.064499 111.657570,190.512833 
	C116.087204,189.632904 120.313797,188.128418 124.840691,185.401169 
M252.744217,228.849213 
	C254.069397,231.126312 256.005219,233.348221 253.650177,236.062881 
	C250.012558,240.255997 246.019989,243.867462 240.493179,245.567322 
	C229.097656,249.072281 220.058380,244.369934 211.505386,237.664642 
	C209.717133,236.262726 210.584061,234.877258 211.260361,233.260361 
	C214.230515,226.159271 219.694138,222.005402 227.007980,220.111496 
	C226.148438,217.924484 224.814041,217.724594 223.177673,218.069656 
	C218.534027,219.048889 214.362778,221.031631 210.651428,223.964569 
	C208.821045,225.411057 208.182373,227.422989 208.141159,229.705872 
	C207.797852,248.721588 226.673859,270.969025 252.010880,266.219116 
	C267.497314,263.315918 276.405701,238.426178 267.391937,225.427628 
	C264.521973,221.288940 260.387787,218.297455 254.762207,219.087402 
	C253.431854,219.274185 252.502487,218.711380 251.549973,218.066757 
	C248.087677,215.723648 244.205353,216.325089 240.404678,216.474014 
	C239.031693,216.527802 237.616669,216.998917 237.471664,218.631210 
	C237.305740,220.499237 238.911682,220.519272 240.197479,220.834503 
	C245.022400,222.017426 249.152222,224.355164 252.744217,228.849213 
M174.946182,257.463409 
	C180.454803,251.994629 184.830338,245.850754 186.981186,238.243500 
	C190.209641,226.824905 182.923126,217.279068 171.057938,217.527969 
	C169.477890,217.561096 168.682129,218.413925 168.309402,219.834671 
	C168.982162,221.066574 170.305099,221.009949 171.343353,221.329208 
	C177.380096,223.185257 181.036804,227.442673 183.486145,233.003189 
	C184.298096,234.846497 184.394241,236.553696 182.744385,237.995697 
	C174.579498,245.131973 164.061584,249.763885 152.949661,245.030289 
	C147.134384,242.553024 140.930557,239.486069 140.417114,232.276077 
	C140.080536,227.549454 148.562851,221.895981 155.853287,220.700699 
	C157.236160,220.473984 159.236084,220.979614 159.304474,218.787582 
	C159.378967,216.400497 157.365448,216.494659 155.708923,216.376114 
	C147.399750,215.781586 139.865631,218.497452 132.532181,221.934631 
	C131.371094,222.478836 130.281433,223.415558 129.465805,224.420120 
	C119.953812,236.135742 126.890930,260.823975 141.374100,265.351196 
	C153.530869,269.151215 164.676605,266.097809 174.946182,257.463409 
M175.931427,311.638306 
	C171.590103,307.961487 167.586609,303.977417 164.676956,299.029205 
	C163.484116,297.000641 161.778778,295.410706 159.455765,296.093353 
	C157.192688,296.758392 157.341339,299.231232 157.187302,301.199707 
	C156.030548,315.980377 167.988235,329.321686 182.620605,329.578583 
	C184.720398,329.615448 186.384705,328.855316 187.794510,327.133240 
	C191.113678,323.078827 202.403229,322.484222 205.791702,326.326813 
	C208.203491,329.061829 211.099014,329.620697 214.300552,329.209412 
	C227.296021,327.539886 237.214005,316.095062 236.993301,302.979126 
	C236.954391,300.666962 237.726837,297.617401 234.424377,296.667175 
	C231.210571,295.742493 230.664185,298.801575 229.458206,300.574310 
	C216.358353,319.830200 194.815704,324.534882 175.931427,311.638306 
M151.640244,240.982513 
	C160.014618,245.661194 167.937714,244.230362 175.440094,239.010849 
	C179.736389,236.021866 179.853317,233.460159 176.118622,229.744308 
	C174.986023,228.617432 173.775803,227.428345 171.817322,227.324265 
	C172.699615,232.262253 172.409393,236.780899 167.504395,239.496826 
	C164.014832,241.429016 160.320938,241.440140 157.167114,239.036407 
	C152.632416,235.580246 153.229416,230.754425 154.670029,225.460419 
	C150.700302,227.226013 146.458389,228.560486 145.627029,232.849915 
	C144.924301,236.475769 148.538376,238.438675 151.640244,240.982513 
M246.643448,228.903534 
	C244.838058,227.455353 243.057938,225.949921 240.295609,226.179825 
	C241.791229,230.864014 242.108612,235.435074 237.874069,238.837219 
	C234.743088,241.352753 231.006607,241.396927 227.547577,239.678894 
	C222.419357,237.131790 222.377670,232.258926 222.982025,227.250824 
	C220.434494,228.035995 218.906662,229.572327 217.563065,231.242615 
	C215.616730,233.662170 215.599838,235.935989 218.103622,238.200729 
	C226.365570,245.673981 239.178986,245.398056 246.990784,237.688171 
	C249.953766,234.763870 250.479324,232.213211 246.643448,228.903534 
M211.346405,149.728699 
	C210.021698,146.101227 207.911041,143.058090 204.550629,140.301483 
	C199.309326,146.273926 194.634842,152.159698 192.815933,160.271362 
	C199.781082,160.271362 206.063614,160.271362 212.680496,160.271362 
	C209.935028,156.947571 205.497208,159.423477 203.021835,156.554703 
	C203.754547,154.055435 205.744995,153.589767 207.664597,153.154617 
	C209.341980,152.774368 210.939926,152.431870 211.346405,149.728699 
M185.675430,303.811493 
	C196.157898,305.274841 206.563873,304.317780 216.966003,302.895355 
	C219.826141,302.504242 222.406860,301.869232 224.455521,297.983215 
	C205.874786,301.095551 188.149445,301.367737 169.657501,297.790466 
	C174.063721,303.329651 179.708588,302.786713 185.675430,303.811493 
M198.465149,219.677277 
	C199.602798,219.837082 200.930756,219.674057 201.844955,220.212921 
	C205.664642,222.464462 207.724838,220.474640 210.171021,216.996643 
	C201.457764,215.679810 193.460175,216.076843 185.465683,216.921188 
	C188.673294,222.507004 193.217880,220.760117 198.465149,219.677277 
M227.029297,356.801270 
	C222.991013,359.329559 219.371872,362.477356 215.148117,364.742767 
	C221.743805,363.775116 227.918076,362.158752 231.494827,354.293762 
	C229.520126,355.368225 228.543243,355.899780 227.029297,356.801270 
M201.180313,116.791290 
	C199.866455,117.590302 198.756454,118.590500 198.378754,120.139633 
	C197.978378,121.781685 198.586868,123.096703 199.994141,123.985275 
	C200.971710,124.602516 202.139481,124.459702 202.650253,123.533859 
	C203.991028,121.103546 205.479828,118.496140 201.180313,116.791290 
M169.118851,360.718811 
	C171.067291,361.913971 172.945374,363.300537 176.556549,363.924866 
	C173.179474,360.613434 170.710632,358.571228 166.284119,357.456970 
	C167.598831,359.068268 168.114319,359.700043 169.118851,360.718811 
z"/>
<path fill="#000000" opacity="1.000000" stroke="none" 
	d="
M215.906769,380.697327 
	C206.598175,380.616058 197.706696,383.176758 188.754883,381.136505 
	C187.628143,380.879700 186.444748,380.746460 185.397354,380.299042 
	C184.170700,379.775024 182.916214,378.930939 183.063126,377.398987 
	C183.212738,375.838867 184.591034,375.189697 185.946320,375.120422 
	C190.554672,374.884949 195.075211,373.578735 199.795334,374.584412 
	C206.243454,375.958221 212.775330,376.939026 219.320236,378.096954 
	C218.954391,380.173828 217.338531,380.009583 215.906769,380.697327 
z"/>
</svg>